# xmcd
#
# Track frame offsets: 
#        150
#        16037
#        31832
#        46865
#        47682
#        48407
#        49172
#        49822
#
# Disc length: 677 seconds
#
# Revision: 0
# Processed by: cddbd v1.4PL0 Copyright (c) Steve Scherf et al.
# Submitted via: ExactAudioCopy v0.95a4
#
DISCID=5b02a308
DTITLE=Destiny's Child - 8 Days Of Christmas
DYEAR=2001
DGENRE=R&B
TTITLE0=8 Days Of Christmas (Album Version)
TTITLE1=8 Days Of Christmas (Instrumental)
TTITLE2=8 Days Of Christmas (A Cappella)
TTITLE3=Holiday Greeting 'Merry Christmas'
TTITLE4=Holiday Greeting 'Happy Holidays'
TTITLE5=Holiday Greeting 'Seasons Greetings'
TTITLE6=Holiday Greeting 'Happy Kwanzaa'
TTITLE7=Holiday Greeting 'Happy New Year'
EXTD=
EXTT0=
EXTT1=
EXTT2=
EXTT3=
EXTT4=
EXTT5=
EXTT6=
EXTT7=
PLAYORDER=
